<svg width="159" height="24" viewBox="0 0 159 24" fill="none" xmlns="http://www.w3.org/2000/svg">
<g clip-path="url(#clip0_1_230)">
<path d="M19 9L20.25 6.25L23 5L20.25 3.75L19 1L17.75 3.75L15 5L17.75 6.25L19 9Z" fill="#464646"/>
<path d="M19 15L17.75 17.75L15 19L17.75 20.25L19 23L20.25 20.25L23 19L20.25 17.75L19 15Z" fill="#464646"/>
<path d="M11.5 9.5L9 4L6.5 9.5L1 12L6.5 14.5L9 20L11.5 14.5L17 12L11.5 9.5ZM9.99 12.99L9 15.17L8.01 12.99L5.83 12L8.01 11.01L9 8.83L9.99 11.01L12.17 12L9.99 12.99Z" fill="#464646"/>
</g>
<path d="M36.272 6.14H38.512L42.688 17.5H40.416L39.36 14.668H35.392L34.352 17.5H32.08L36.272 6.14ZM38.96 13.116L37.392 8.428L35.76 13.116H38.96ZM43.6631 5.82H45.8071V14.812C45.8071 15.196 45.8711 15.4573 45.9991 15.596C46.1271 15.724 46.3031 15.788 46.5271 15.788C46.6978 15.788 46.8738 15.7667 47.0551 15.724C47.2365 15.6813 47.3965 15.628 47.5351 15.564L47.8231 17.196C47.5351 17.3347 47.1991 17.4413 46.8151 17.516C46.4311 17.5907 46.0845 17.628 45.7751 17.628C45.1031 17.628 44.5805 17.452 44.2071 17.1C43.8445 16.7373 43.6631 16.2253 43.6631 15.564V5.82ZM52.6453 17.66C51.9733 17.66 51.3653 17.548 50.8213 17.324C50.2773 17.0893 49.8133 16.7747 49.4293 16.38C49.0453 15.9747 48.7466 15.516 48.5333 15.004C48.3306 14.4813 48.2293 13.932 48.2293 13.356C48.2293 12.556 48.4053 11.8253 48.7573 11.164C49.1199 10.5027 49.6319 9.97467 50.2933 9.58C50.9653 9.17467 51.7546 8.972 52.6613 8.972C53.5786 8.972 54.3626 9.17467 55.0133 9.58C55.6639 9.97467 56.1599 10.5027 56.5013 11.164C56.8533 11.8147 57.0293 12.5187 57.0293 13.276C57.0293 13.404 57.0239 13.5373 57.0133 13.676C57.0026 13.804 56.9919 13.9107 56.9813 13.996H50.5013C50.5439 14.4227 50.6666 14.796 50.8693 15.116C51.0826 15.436 51.3493 15.6813 51.6693 15.852C51.9999 16.012 52.3519 16.092 52.7253 16.092C53.1519 16.092 53.5519 15.9907 53.9253 15.788C54.3093 15.5747 54.5706 15.2973 54.7093 14.956L56.5493 15.468C56.3466 15.8947 56.0533 16.2733 55.6693 16.604C55.2959 16.9347 54.8533 17.196 54.3413 17.388C53.8293 17.5693 53.2639 17.66 52.6453 17.66ZM50.4533 12.636H54.8373C54.7946 12.2093 54.6719 11.8413 54.4693 11.532C54.2773 11.212 54.0213 10.9667 53.7013 10.796C53.3813 10.6147 53.0239 10.524 52.6293 10.524C52.2453 10.524 51.8933 10.6147 51.5733 10.796C51.2639 10.9667 51.0079 11.212 50.8053 11.532C50.6133 11.8413 50.4959 12.2093 50.4533 12.636ZM59.3989 9.116L61.1589 11.74L61.2869 12.028L61.4469 11.74L63.1909 9.116H65.4469L62.5349 13.292L65.4949 17.5H63.2389L61.4309 14.892L61.2869 14.62L61.1589 14.892L59.3669 17.5H57.1109L60.0709 13.34L57.1589 9.116H59.3989ZM65.8531 15.02C65.8531 14.476 66.0025 14.0013 66.3011 13.596C66.6105 13.18 67.0371 12.86 67.5811 12.636C68.1251 12.412 68.7491 12.3 69.4531 12.3C69.8051 12.3 70.1625 12.3267 70.5251 12.38C70.8878 12.4333 71.2025 12.5187 71.4691 12.636V12.188C71.4691 11.6547 71.3091 11.244 70.9891 10.956C70.6798 10.668 70.2158 10.524 69.5971 10.524C69.1385 10.524 68.7011 10.604 68.2851 10.764C67.8691 10.924 67.4318 11.1587 66.9731 11.468L66.2851 10.06C66.8398 9.69733 67.4051 9.42533 67.9811 9.244C68.5678 9.06267 69.1811 8.972 69.8211 8.972C71.0158 8.972 71.9438 9.27067 72.6051 9.868C73.2771 10.4653 73.6131 11.3187 73.6131 12.428V15.1C73.6131 15.324 73.6505 15.484 73.7251 15.58C73.8105 15.676 73.9438 15.7347 74.1251 15.756V17.5C73.9331 17.532 73.7571 17.5587 73.5971 17.58C73.4478 17.6013 73.3198 17.612 73.2131 17.612C72.7865 17.612 72.4611 17.516 72.2371 17.324C72.0238 17.132 71.8905 16.8973 71.8371 16.62L71.7891 16.188C71.4265 16.6573 70.9731 17.02 70.4291 17.276C69.8851 17.532 69.3305 17.66 68.7651 17.66C68.2105 17.66 67.7091 17.548 67.2611 17.324C66.8238 17.0893 66.4771 16.7747 66.2211 16.38C65.9758 15.9747 65.8531 15.5213 65.8531 15.02ZM71.0691 15.452C71.1865 15.324 71.2825 15.196 71.3571 15.068C71.4318 14.94 71.4691 14.8227 71.4691 14.716V13.868C71.2131 13.7613 70.9358 13.6813 70.6371 13.628C70.3385 13.564 70.0558 13.532 69.7891 13.532C69.2345 13.532 68.7758 13.6547 68.4131 13.9C68.0611 14.1347 67.8851 14.4493 67.8851 14.844C67.8851 15.0573 67.9438 15.26 68.0611 15.452C68.1785 15.644 68.3491 15.7987 68.5731 15.916C68.7971 16.0333 69.0638 16.092 69.3731 16.092C69.6931 16.092 70.0078 16.0333 70.3171 15.916C70.6265 15.788 70.8771 15.6333 71.0691 15.452ZM83.4086 17.5H81.2646V12.796C81.2646 12.124 81.1473 11.6333 80.9126 11.324C80.678 11.0147 80.3526 10.86 79.9366 10.86C79.6486 10.86 79.3553 10.9347 79.0566 11.084C78.7686 11.2333 78.5073 11.4413 78.2726 11.708C78.038 11.964 77.8673 12.2627 77.7606 12.604V17.5H75.6166V9.116H77.5526V10.668C77.766 10.3053 78.038 10.0013 78.3686 9.756C78.6993 9.5 79.078 9.308 79.5046 9.18C79.942 9.04133 80.4006 8.972 80.8806 8.972C81.4033 8.972 81.83 9.068 82.1606 9.26C82.502 9.44133 82.758 9.692 82.9286 10.012C83.11 10.3213 83.2326 10.6733 83.2966 11.068C83.3713 11.4627 83.4086 11.8627 83.4086 12.268V17.5ZM84.7609 13.308C84.7609 12.4973 84.9209 11.7667 85.2409 11.116C85.5609 10.4547 86.0035 9.932 86.5689 9.548C87.1342 9.164 87.7795 8.972 88.5049 8.972C89.1235 8.972 89.6782 9.12667 90.1689 9.436C90.6702 9.73467 91.0595 10.1187 91.3369 10.588V5.82H93.4809V15.1C93.4809 15.324 93.5182 15.484 93.5929 15.58C93.6675 15.676 93.7955 15.7347 93.9769 15.756V17.5C93.6035 17.5747 93.2995 17.612 93.0649 17.612C92.6809 17.612 92.3609 17.516 92.1049 17.324C91.8595 17.132 91.7209 16.8813 91.6889 16.572L91.6569 16.044C91.3475 16.5667 90.9262 16.9667 90.3929 17.244C89.8702 17.5213 89.3209 17.66 88.7449 17.66C88.1689 17.66 87.6355 17.548 87.1449 17.324C86.6649 17.1 86.2435 16.7907 85.8809 16.396C85.5289 16.0013 85.2515 15.5427 85.0489 15.02C84.8569 14.4867 84.7609 13.916 84.7609 13.308ZM91.3369 14.428V12.428C91.2302 12.1187 91.0595 11.8413 90.8249 11.596C90.5902 11.3507 90.3289 11.1587 90.0409 11.02C89.7529 10.8707 89.4649 10.796 89.1769 10.796C88.8462 10.796 88.5475 10.8653 88.2809 11.004C88.0142 11.1427 87.7795 11.3293 87.5769 11.564C87.3849 11.7987 87.2355 12.0707 87.1289 12.38C87.0329 12.6893 86.9849 13.0147 86.9849 13.356C86.9849 13.6973 87.0382 14.0227 87.1449 14.332C87.2622 14.6307 87.4275 14.892 87.6409 15.116C87.8542 15.34 88.0995 15.516 88.3769 15.644C88.6649 15.772 88.9742 15.836 89.3049 15.836C89.5075 15.836 89.7102 15.804 89.9129 15.74C90.1262 15.6653 90.3235 15.5693 90.5049 15.452C90.6969 15.324 90.8622 15.1747 91.0009 15.004C91.1502 14.8227 91.2622 14.6307 91.3369 14.428ZM99.4734 17.66C98.8014 17.66 98.1934 17.548 97.6494 17.324C97.1054 17.0893 96.6414 16.7747 96.2574 16.38C95.8734 15.9747 95.5747 15.516 95.3614 15.004C95.1587 14.4813 95.0574 13.932 95.0574 13.356C95.0574 12.556 95.2334 11.8253 95.5854 11.164C95.948 10.5027 96.46 9.97467 97.1214 9.58C97.7934 9.17467 98.5827 8.972 99.4894 8.972C100.407 8.972 101.191 9.17467 101.841 9.58C102.492 9.97467 102.988 10.5027 103.329 11.164C103.681 11.8147 103.857 12.5187 103.857 13.276C103.857 13.404 103.852 13.5373 103.841 13.676C103.831 13.804 103.82 13.9107 103.809 13.996H97.3294C97.372 14.4227 97.4947 14.796 97.6974 15.116C97.9107 15.436 98.1774 15.6813 98.4974 15.852C98.828 16.012 99.18 16.092 99.5534 16.092C99.98 16.092 100.38 15.9907 100.753 15.788C101.137 15.5747 101.399 15.2973 101.537 14.956L103.377 15.468C103.175 15.8947 102.881 16.2733 102.497 16.604C102.124 16.9347 101.681 17.196 101.169 17.388C100.657 17.5693 100.092 17.66 99.4734 17.66ZM97.2814 12.636H101.665C101.623 12.2093 101.5 11.8413 101.297 11.532C101.105 11.212 100.849 10.9667 100.529 10.796C100.209 10.6147 99.852 10.524 99.4574 10.524C99.0734 10.524 98.7214 10.6147 98.4014 10.796C98.092 10.9667 97.836 11.212 97.6334 11.532C97.4414 11.8413 97.324 12.2093 97.2814 12.636ZM110.156 10.972C109.505 10.972 108.924 11.1 108.411 11.356C107.9 11.6013 107.532 11.9587 107.308 12.428V17.5H105.164V9.116H107.132V10.908C107.43 10.332 107.809 9.87867 108.268 9.548C108.726 9.21733 109.212 9.036 109.724 9.004C109.841 9.004 109.932 9.004 109.996 9.004C110.06 9.004 110.113 9.00933 110.156 9.02V10.972ZM115.043 17.5V6.14H119.859C120.382 6.14 120.862 6.24667 121.299 6.46C121.737 6.67333 122.115 6.96133 122.435 7.324C122.766 7.68667 123.022 8.092 123.203 8.54C123.385 8.988 123.475 9.44667 123.475 9.916C123.475 10.556 123.326 11.164 123.027 11.74C122.729 12.316 122.318 12.7853 121.795 13.148C121.273 13.5107 120.654 13.692 119.939 13.692H117.251V17.5H115.043ZM117.251 11.756H119.811C120.078 11.756 120.318 11.6813 120.531 11.532C120.745 11.3827 120.915 11.1693 121.043 10.892C121.171 10.604 121.235 10.2787 121.235 9.916C121.235 9.52133 121.161 9.18533 121.011 8.908C120.873 8.63067 120.686 8.42267 120.451 8.284C120.227 8.14533 119.982 8.076 119.715 8.076H117.251V11.756ZM128.504 17.66C127.822 17.66 127.208 17.548 126.664 17.324C126.12 17.0893 125.656 16.7693 125.272 16.364C124.899 15.9587 124.611 15.4947 124.408 14.972C124.206 14.4493 124.104 13.9 124.104 13.324C124.104 12.7373 124.206 12.1827 124.408 11.66C124.611 11.1373 124.899 10.6733 125.272 10.268C125.656 9.86267 126.12 9.548 126.664 9.324C127.208 9.08933 127.822 8.972 128.504 8.972C129.187 8.972 129.795 9.08933 130.328 9.324C130.872 9.548 131.336 9.86267 131.72 10.268C132.104 10.6733 132.392 11.1373 132.584 11.66C132.787 12.1827 132.888 12.7373 132.888 13.324C132.888 13.9 132.787 14.4493 132.584 14.972C132.392 15.4947 132.104 15.9587 131.72 16.364C131.347 16.7693 130.888 17.0893 130.344 17.324C129.8 17.548 129.187 17.66 128.504 17.66ZM126.312 13.324C126.312 13.8147 126.408 14.252 126.6 14.636C126.792 15.0093 127.054 15.3027 127.384 15.516C127.715 15.7293 128.088 15.836 128.504 15.836C128.91 15.836 129.278 15.7293 129.608 15.516C129.939 15.292 130.2 14.9933 130.392 14.62C130.595 14.236 130.696 13.7987 130.696 13.308C130.696 12.828 130.595 12.396 130.392 12.012C130.2 11.628 129.939 11.3293 129.608 11.116C129.278 10.9027 128.91 10.796 128.504 10.796C128.088 10.796 127.715 10.908 127.384 11.132C127.054 11.3453 126.792 11.644 126.6 12.028C126.408 12.4013 126.312 12.8333 126.312 13.324ZM133.635 16.188L138.259 10.62H133.827V9.116H140.563V10.428L135.971 15.996H140.643V17.5H133.635V16.188ZM141.509 15.02C141.509 14.476 141.659 14.0013 141.957 13.596C142.267 13.18 142.693 12.86 143.237 12.636C143.781 12.412 144.405 12.3 145.109 12.3C145.461 12.3 145.819 12.3267 146.181 12.38C146.544 12.4333 146.859 12.5187 147.125 12.636V12.188C147.125 11.6547 146.965 11.244 146.645 10.956C146.336 10.668 145.872 10.524 145.253 10.524C144.795 10.524 144.357 10.604 143.941 10.764C143.525 10.924 143.088 11.1587 142.629 11.468L141.941 10.06C142.496 9.69733 143.061 9.42533 143.637 9.244C144.224 9.06267 144.837 8.972 145.477 8.972C146.672 8.972 147.6 9.27067 148.261 9.868C148.933 10.4653 149.269 11.3187 149.269 12.428V15.1C149.269 15.324 149.307 15.484 149.381 15.58C149.467 15.676 149.6 15.7347 149.781 15.756V17.5C149.589 17.532 149.413 17.5587 149.253 17.58C149.104 17.6013 148.976 17.612 148.869 17.612C148.443 17.612 148.117 17.516 147.893 17.324C147.68 17.132 147.547 16.8973 147.493 16.62L147.445 16.188C147.083 16.6573 146.629 17.02 146.085 17.276C145.541 17.532 144.987 17.66 144.421 17.66C143.867 17.66 143.365 17.548 142.917 17.324C142.48 17.0893 142.133 16.7747 141.877 16.38C141.632 15.9747 141.509 15.5213 141.509 15.02ZM146.725 15.452C146.843 15.324 146.939 15.196 147.013 15.068C147.088 14.94 147.125 14.8227 147.125 14.716V13.868C146.869 13.7613 146.592 13.6813 146.293 13.628C145.995 13.564 145.712 13.532 145.445 13.532C144.891 13.532 144.432 13.6547 144.069 13.9C143.717 14.1347 143.541 14.4493 143.541 14.844C143.541 15.0573 143.6 15.26 143.717 15.452C143.835 15.644 144.005 15.7987 144.229 15.916C144.453 16.0333 144.72 16.092 145.029 16.092C145.349 16.092 145.664 16.0333 145.973 15.916C146.283 15.788 146.533 15.6333 146.725 15.452ZM154.361 17.66C153.646 17.66 152.964 17.5427 152.313 17.308C151.662 17.0733 151.102 16.7267 150.633 16.268L151.401 14.876C151.902 15.2813 152.393 15.58 152.873 15.772C153.364 15.964 153.833 16.06 154.281 16.06C154.697 16.06 155.028 15.9853 155.273 15.836C155.529 15.6867 155.657 15.4627 155.657 15.164C155.657 14.9613 155.588 14.8067 155.449 14.7C155.31 14.5827 155.108 14.4813 154.841 14.396C154.585 14.3107 154.27 14.2147 153.897 14.108C153.278 13.9053 152.761 13.708 152.345 13.516C151.929 13.324 151.614 13.084 151.401 12.796C151.198 12.4973 151.097 12.1187 151.097 11.66C151.097 11.1053 151.236 10.6307 151.513 10.236C151.801 9.83067 152.196 9.516 152.697 9.292C153.209 9.068 153.806 8.956 154.489 8.956C155.086 8.956 155.652 9.052 156.185 9.244C156.718 9.42533 157.204 9.724 157.641 10.14L156.777 11.5C156.35 11.1693 155.945 10.9293 155.561 10.78C155.177 10.62 154.788 10.54 154.393 10.54C154.169 10.54 153.956 10.5667 153.753 10.62C153.561 10.6733 153.401 10.764 153.273 10.892C153.156 11.0093 153.097 11.18 153.097 11.404C153.097 11.6067 153.15 11.7667 153.257 11.884C153.374 11.9907 153.545 12.0867 153.769 12.172C154.004 12.2573 154.286 12.3533 154.617 12.46C155.289 12.652 155.854 12.8493 156.313 13.052C156.782 13.2547 157.134 13.5053 157.369 13.804C157.604 14.092 157.721 14.492 157.721 15.004C157.721 15.836 157.417 16.4867 156.809 16.956C156.201 17.4253 155.385 17.66 154.361 17.66Z" fill="#464646"/>
<defs>
<clipPath id="clip0_1_230">
<rect width="24" height="24" fill="white"/>
</clipPath>
</defs>
</svg>
